<?xml version="1.0" encoding="UTF-8" standalone="no"?>
<svg xmlns="http://www.w3.org/2000/svg"
  xmlns:svg="http://www.w3.org/2000/svg"
  version="1.1"
  width="4in" height="1.33333in"
  viewBox="0 0 1200 400">
  <path id="选区"
    fill="#8080f7" stroke="#8080f7" stroke-width="1"
    d="M 452.00,89.00
           C 441.62,95.95 443.22,97.13 435.99,103.83
             435.99,103.83 414.00,122.67 414.00,122.67
             414.00,122.67 403.00,130.28 403.00,130.28
             403.00,130.28 390.00,139.86 390.00,139.86
             390.00,139.86 383.00,142.68 383.00,142.68
             380.48,143.88 377.69,145.63 375.00,146.36
             365.40,148.98 350.06,137.31 344.99,129.99
             342.82,126.86 340.14,118.88 343.74,115.84
             346.90,113.16 351.72,118.29 353.71,120.44
             358.99,126.13 359.10,134.45 371.00,129.37
             388.29,121.98 398.75,112.83 413.00,101.08
             427.26,89.33 440.93,77.07 454.00,64.00
             454.00,64.00 476.17,40.43 476.17,40.43
             482.24,35.67 491.75,42.93 490.64,50.00
             490.08,53.58 486.91,57.85 485.00,61.00
             485.00,61.00 476.26,77.00 476.26,77.00
             476.26,77.00 473.66,84.00 473.66,84.00
             473.66,84.00 465.46,105.00 465.46,105.00
             465.46,105.00 460.00,123.00 460.00,123.00
             456.95,132.06 452.45,140.31 452.00,150.00
             465.94,150.00 469.60,148.75 483.00,154.29
             486.28,155.65 489.99,157.25 493.00,159.11
             499.57,163.18 499.62,165.14 508.00,164.98
             508.00,164.98 536.00,161.17 536.00,161.17
             536.00,161.17 552.00,159.71 552.00,159.71
             552.00,159.71 561.00,158.17 561.00,158.17
             561.00,158.17 595.00,154.72 595.00,154.72
             595.00,154.72 613.00,152.17 613.00,152.17
             613.00,152.17 638.00,149.00 638.00,149.00
             638.00,149.00 646.00,149.00 646.00,149.00
             646.00,149.00 655.00,147.16 655.00,147.16
             655.00,147.16 712.00,139.30 712.00,139.30
             712.00,139.30 726.00,137.84 726.00,137.84
             726.00,137.84 734.00,136.30 734.00,136.30
             734.00,136.30 764.00,132.72 764.00,132.72
             764.00,132.72 790.00,128.29 790.00,128.29
             790.00,128.29 805.00,126.71 805.00,126.71
             805.00,126.71 832.00,122.30 832.00,122.30
             832.00,122.30 862.00,118.68 862.00,118.68
             862.00,118.68 869.00,117.14 869.00,117.14
             869.00,117.14 884.00,115.70 884.00,115.70
             884.00,115.70 913.00,111.29 913.00,111.29
             913.00,111.29 945.00,107.82 945.00,107.82
             945.00,107.82 953.00,106.18 953.00,106.18
             953.00,106.18 967.00,104.68 967.00,104.68
             967.00,104.68 974.00,103.18 974.00,103.18
             974.00,103.18 991.00,101.71 991.00,101.71
             991.00,101.71 1011.00,98.43 1011.00,98.43
             1011.00,98.43 1025.00,96.75 1025.00,96.75
             1030.18,95.84 1035.79,93.09 1041.00,95.00
             1035.43,97.60 1017.69,100.17 1011.00,100.83
             1011.00,100.83 1003.00,101.46 1003.00,101.46
             1003.00,101.46 980.00,105.47 980.00,105.47
             980.00,105.47 971.00,107.79 971.00,107.79
             971.00,107.79 950.00,110.33 950.00,110.33
             950.00,110.33 941.00,112.79 941.00,112.79
             941.00,112.79 922.00,114.18 922.00,114.18
             922.00,114.18 904.00,117.73 904.00,117.73
             904.00,117.73 867.00,122.18 867.00,122.18
             867.00,122.18 856.00,124.70 856.00,124.70
             856.00,124.70 847.00,125.21 847.00,125.21
             847.00,125.21 841.00,126.63 841.00,126.63
             841.00,126.63 833.00,127.62 833.00,127.62
             833.00,127.62 812.00,131.70 812.00,131.70
             812.00,131.70 764.00,138.14 764.00,138.14
             764.00,138.14 752.00,140.57 752.00,140.57
             752.00,140.57 742.00,141.32 742.00,141.32
             742.00,141.32 732.00,143.56 732.00,143.56
             732.00,143.56 701.00,148.39 701.00,148.39
             701.00,148.39 675.00,152.01 675.00,152.01
             675.00,152.01 662.00,154.58 662.00,154.58
             662.00,154.58 654.00,155.21 654.00,155.21
             654.00,155.21 645.00,157.79 645.00,157.79
             645.00,157.79 622.00,160.92 622.00,160.92
             605.59,163.63 597.66,161.25 598.07,174.00
             598.25,179.25 597.98,182.05 595.79,187.00
             591.71,196.25 573.98,215.14 566.00,221.49
             558.85,227.17 554.75,228.00 549.00,236.00
             557.60,235.03 561.64,229.57 568.00,224.51
             573.98,219.75 585.71,209.38 590.83,203.96
             590.83,203.96 610.17,183.65 610.17,183.65
             614.57,180.33 621.77,180.96 624.39,186.19
             625.71,188.81 625.17,192.17 625.00,195.00
             625.00,195.00 640.93,174.00 640.93,174.00
             643.36,171.02 646.27,167.38 650.00,166.05
             655.14,164.21 661.24,168.24 663.05,173.01
             664.63,176.88 663.00,194.10 663.05,200.00
             667.98,199.20 668.19,198.26 672.00,195.24
             676.26,191.86 690.26,181.59 695.00,180.66
             697.85,180.11 699.47,180.92 702.00,182.08
             708.97,185.27 709.28,187.57 708.96,195.00
             708.67,201.92 705.76,205.39 706.00,211.00
             712.93,205.80 723.97,188.99 734.00,183.77
             739.56,180.87 746.88,183.87 748.39,190.02
             749.14,193.08 747.93,196.12 747.00,199.00
             754.19,195.76 762.58,186.43 770.00,185.19
             775.41,184.28 780.07,189.91 779.77,195.00
             779.77,195.00 778.00,203.00 778.00,203.00
             787.62,198.66 790.34,190.63 802.00,182.44
             804.97,180.36 811.38,176.40 815.00,176.35
             818.78,176.30 820.91,179.26 823.74,177.98
             827.11,176.44 827.82,169.82 834.02,166.61
             841.38,162.79 850.41,167.21 852.93,175.00
             854.04,178.43 852.94,181.70 852.00,185.00
             860.40,185.90 867.56,181.25 875.00,178.06
             875.00,178.06 890.00,171.31 890.00,171.31
             894.65,169.84 895.89,171.25 900.00,169.35
             900.00,169.35 924.00,156.07 924.00,156.07
             925.70,155.33 928.31,153.88 930.00,153.55
             939.23,151.71 950.58,165.04 949.66,174.00
             948.70,183.41 945.35,185.56 939.28,191.25
             930.97,199.06 925.27,204.24 914.00,207.44
             907.93,209.17 900.69,210.10 895.00,206.77
             890.28,204.01 886.16,198.61 885.78,193.00
             885.78,193.00 886.36,187.02 886.36,187.02
             886.11,184.46 884.60,183.02 881.98,183.28
             880.63,183.41 874.66,186.13 873.00,186.85
             865.56,190.07 854.53,194.89 849.33,201.02
             843.87,207.44 841.30,216.31 831.00,221.55
             828.91,222.61 823.28,224.29 821.00,223.90
             815.60,223.00 808.01,215.31 806.49,210.00
             804.50,203.04 806.24,195.75 808.00,189.00
             800.82,193.74 796.03,196.46 790.10,203.00
             786.18,207.33 784.41,212.22 778.99,215.08
             772.94,218.26 766.57,214.34 765.28,208.00
             764.63,204.85 765.44,201.12 766.00,198.00
             755.04,203.18 750.16,216.14 745.79,219.26
             739.47,223.78 731.08,215.52 730.50,211.00
             730.19,208.66 733.29,199.14 734.00,196.00
             726.49,199.55 712.35,217.66 707.16,225.00
             707.16,225.00 700.57,235.40 700.57,235.40
             696.88,238.45 690.19,234.62 688.60,230.82
             687.09,227.22 688.66,218.73 689.77,215.00
             692.28,206.52 693.91,204.43 694.00,195.00
             681.28,203.47 670.60,206.69 661.80,221.00
             658.87,225.78 659.64,227.60 658.37,232.00
             658.37,232.00 652.59,251.00 652.59,251.00
             652.59,251.00 651.40,261.00 651.40,261.00
             651.40,261.00 640.08,294.00 640.08,294.00
             640.08,294.00 628.43,312.00 628.43,312.00
             624.75,318.41 620.72,327.74 615.87,332.96
             611.48,337.70 602.26,345.59 596.00,347.37
             593.30,348.13 589.82,348.03 587.00,348.00
             574.17,347.85 568.72,340.44 569.01,328.00
             569.22,319.45 576.28,299.71 580.32,292.00
             590.29,272.95 601.88,259.12 617.00,244.00
             617.00,244.00 635.00,226.58 635.00,226.58
             637.87,224.09 646.47,216.83 647.99,213.99
             649.85,210.53 649.81,204.86 650.04,201.00
             650.69,192.78 652.00,185.23 650.04,177.00
             650.04,177.00 648.00,177.00 648.00,177.00
             645.21,182.21 644.43,181.94 641.64,186.00
             641.64,186.00 636.87,195.00 636.87,195.00
             636.87,195.00 631.40,203.00 631.40,203.00
             631.40,203.00 621.42,220.40 621.42,220.40
             617.65,223.86 609.17,218.92 607.60,214.95
             606.75,212.80 607.00,206.59 607.00,204.00
             595.17,209.01 594.44,212.98 586.83,220.91
             580.70,227.30 573.83,232.88 567.00,238.46
             564.22,240.73 561.13,243.98 558.00,245.55
             550.36,249.36 543.98,243.96 541.00,243.29
             537.61,242.52 534.95,244.74 532.00,246.11
             519.70,251.85 514.70,248.48 509.51,255.10
             507.11,258.17 506.75,262.38 505.41,266.00
             505.41,266.00 496.81,288.00 496.81,288.00
             494.50,293.36 490.81,297.18 487.70,302.00
             487.70,302.00 482.23,312.00 482.23,312.00
             482.23,312.00 474.00,325.00 474.00,325.00
             469.09,333.01 457.23,347.47 447.00,347.64
             442.72,347.72 438.74,345.68 435.00,343.87
             432.27,342.55 429.42,341.65 427.04,339.70
             417.52,331.90 413.02,311.90 413.00,300.00
             413.00,300.00 413.00,285.00 413.00,285.00
             413.00,285.00 419.21,230.00 419.21,230.00
             419.21,230.00 420.83,223.00 420.83,223.00
             420.83,223.00 422.29,212.00 422.29,212.00
             423.58,203.69 424.99,198.77 425.00,190.00
             417.63,190.07 419.34,190.51 413.00,191.69
             413.00,191.69 400.00,193.37 400.00,193.37
             400.00,193.37 391.00,195.99 391.00,195.99
             391.00,195.99 376.00,199.49 376.00,199.49
             376.00,199.49 362.00,201.19 362.00,201.19
             362.00,201.19 352.00,203.70 352.00,203.70
             352.00,203.70 324.00,208.11 324.00,208.11
             324.00,208.11 263.00,221.88 263.00,221.88
             263.00,221.88 255.00,223.45 255.00,223.45
             255.00,223.45 249.00,225.59 249.00,225.59
             249.00,225.59 243.00,226.59 243.00,226.59
             243.00,226.59 214.00,234.55 214.00,234.55
             214.00,234.55 190.00,241.18 190.00,241.18
             177.36,243.85 169.84,235.52 170.25,231.19
             170.47,228.81 173.08,227.68 175.02,226.98
             175.02,226.98 191.00,222.65 191.00,222.65
             191.00,222.65 258.00,206.33 258.00,206.33
             258.00,206.33 287.00,196.96 287.00,196.96
             287.00,196.96 380.00,166.71 380.00,166.71
             380.00,166.71 416.00,156.63 416.00,156.63
             420.80,155.45 429.28,154.63 432.79,151.57
             437.58,147.40 437.91,140.69 439.66,135.00
             439.66,135.00 446.77,110.00 446.77,110.00
             449.19,101.87 451.91,97.84 452.00,89.00 Z
           M 490.00,166.00
           C 488.75,164.75 488.64,164.33 486.89,163.51
             486.89,163.51 468.00,160.08 468.00,160.08
             468.00,160.08 460.00,160.91 460.00,160.91
             456.40,161.16 452.24,160.49 449.14,162.74
             446.07,164.97 445.66,168.55 445.00,172.00
             453.17,173.28 463.81,170.65 472.00,169.32
             479.30,168.14 482.19,169.64 490.00,166.00 Z
           M 928.00,165.32
           C 925.43,165.91 907.79,172.52 906.04,173.72
             904.27,174.95 903.20,176.20 902.07,178.02
             898.77,183.29 892.82,193.00 898.43,198.57
             900.35,200.47 902.42,200.79 905.00,200.49
             915.50,199.28 929.25,190.23 935.53,181.99
             941.72,173.87 940.73,163.98 928.00,165.32 Z
           M 350.00,188.00
           C 355.66,188.00 361.42,187.73 367.00,186.75
             367.00,186.75 373.00,185.25 373.00,185.25
             373.00,185.25 392.00,182.57 392.00,182.57
             392.00,182.57 412.00,179.05 412.00,179.05
             412.00,179.05 421.00,177.46 421.00,177.46
             424.67,176.79 430.75,176.80 429.63,171.14
             428.53,165.60 414.77,169.06 411.00,170.00
             411.00,170.00 401.00,172.63 401.00,172.63
             401.00,172.63 393.00,173.63 393.00,173.63
             393.00,173.63 373.00,180.64 373.00,180.64
             373.00,180.64 353.11,185.17 353.11,185.17
             351.51,186.05 351.14,186.75 350.00,188.00 Z
           M 558.00,169.00
           C 544.95,169.04 539.09,172.54 527.00,175.41
             523.24,176.30 518.24,176.02 515.65,179.53
             512.98,183.14 517.36,184.79 516.91,193.00
             516.91,193.00 516.18,200.00 516.18,200.00
             516.18,200.00 516.96,207.00 516.96,207.00
             516.96,207.00 516.96,219.00 516.96,219.00
             516.96,226.35 514.13,233.18 515.00,238.00
             520.21,237.02 526.28,236.29 528.97,230.98
             530.27,228.42 529.80,221.37 530.17,218.00
             530.78,212.30 532.87,207.14 535.32,202.00
             541.80,188.40 555.07,176.49 558.00,169.00 Z
           M 587.00,172.00
           C 575.07,173.72 570.75,178.87 562.83,186.83
             560.60,189.08 558.61,190.38 556.64,193.04
             556.64,193.04 553.21,198.83 553.21,198.83
             548.23,206.14 543.45,212.81 543.00,222.00
             549.54,220.94 554.26,215.37 559.00,211.07
             570.13,200.98 586.63,188.19 587.00,172.00 Z
           M 498.00,178.29
           C 498.00,178.29 489.00,179.37 489.00,179.37
             489.00,179.37 480.00,181.56 480.00,181.56
             480.00,181.56 473.00,182.37 473.00,182.37
             473.00,182.37 467.00,183.79 467.00,183.79
             457.79,185.07 448.93,184.42 441.27,191.49
             436.67,195.74 437.41,203.30 435.85,209.00
             435.85,209.00 432.32,225.00 432.32,225.00
             432.32,225.00 431.56,233.00 431.56,233.00
             431.56,233.00 429.17,243.00 429.17,243.00
             429.17,243.00 426.42,264.00 426.42,264.00
             426.42,264.00 425.71,278.00 425.71,278.00
             424.45,288.28 422.77,286.85 423.30,299.00
             423.30,299.00 426.12,319.00 426.12,319.00
             427.12,326.63 434.31,337.30 443.00,336.64
             450.93,336.04 458.74,327.65 463.57,322.00
             478.21,304.91 483.66,296.16 493.25,276.00
             495.21,271.89 502.02,256.89 501.50,253.01
             500.45,245.03 482.77,243.97 483.85,235.37
             484.32,231.48 488.46,234.56 490.01,235.37
             494.30,238.06 502.73,243.35 506.20,236.85
             509.00,231.61 509.34,221.55 509.91,215.58
             510.37,210.75 511.50,208.61 510.87,203.00
             510.87,203.00 509.04,194.00 509.04,194.00
             508.33,186.25 507.88,177.71 498.00,178.29 Z
           M 846.00,179.00
           C 844.33,179.06 842.60,178.99 841.02,179.60
             838.56,180.53 834.32,184.47 836.13,187.40
             837.77,190.06 843.45,188.97 844.98,186.69
             846.21,184.83 845.99,181.19 846.00,179.00 Z
           M 824.00,188.00
           C 817.89,191.24 816.80,199.55 817.32,206.00
             817.85,212.40 820.23,216.29 827.00,212.28
             828.43,211.43 831.65,208.75 832.96,207.57
             835.97,204.87 836.98,203.44 839.00,200.00
             831.59,194.14 830.73,196.86 824.00,188.00 Z
           M 647.00,228.00
           C 639.19,230.30 633.23,236.73 627.00,241.80
             611.99,254.01 598.81,270.36 589.01,287.00
             583.56,296.26 579.98,300.01 579.43,311.00
             579.43,311.00 576.45,329.00 576.45,329.00
             576.30,331.81 578.89,339.43 581.30,340.90
             584.01,342.72 589.18,341.95 592.00,340.90
             599.18,337.93 606.58,329.65 611.96,324.00
             628.30,306.83 636.98,277.64 642.33,255.00
             644.14,247.37 646.93,235.67 647.00,228.00 Z" />
</svg>